HIERARCHY
ROOT Hips
{
	OFFSET 0.000000 0.000000 0.000000
	CHANNELS 6 Xposition Yposition Zposition Xrotation Yrotation Zrotation
	JOINT LeftUpLeg_virtual
	{
		OFFSET 0.000000 0.000000 0.000000
		CHANNELS 3 Xrotation Yrotation Zrotation
		JOINT LeftUpLeg
		{
			OFFSET 15.427100 -6.655098 0.678600
			CHANNELS 3 Xrotation Yrotation Zrotation
			JOINT LeftLeg
			{
				OFFSET 4.081073 -39.591068 13.024000
				CHANNELS 3 Xrotation Yrotation Zrotation
				JOINT LeftFoot
				{
					OFFSET -4.081074 -37.707932 -15.979700
					CHANNELS 3 Xrotation Yrotation Zrotation
					JOINT LeftToeBase
					{
						OFFSET 5.346399 -15.068900 20.645000
						CHANNELS 3 Xrotation Yrotation Zrotation
						JOINT LeftToe_End
						{
							OFFSET 2.754700 0.931300 11.300900
							CHANNELS 3 Xrotation Yrotation Zrotation
							End Site
							{
								OFFSET 0 0 0
							}
						}
					}
				}
			}
		}
	}
	JOINT RightUpLeg_virtual
	{
		OFFSET 0.000000 0.000000 0.000000
		CHANNELS 3 Xrotation Yrotation Zrotation
		JOINT RightUpLeg
		{
			OFFSET -15.569500 -6.655098 0.678600
			CHANNELS 3 Xrotation Yrotation Zrotation
			JOINT RightLeg
			{
				OFFSET -4.081825 -39.591045 13.023800
				CHANNELS 3 Xrotation Yrotation Zrotation
				JOINT RightFoot
				{
					OFFSET 4.081824 -37.707954 -15.979600
					CHANNELS 3 Xrotation Yrotation Zrotation
					JOINT RightToeBase
					{
						OFFSET -5.346400 -15.068900 20.645000
						CHANNELS 3 Xrotation Yrotation Zrotation
						JOINT RightToe_End
						{
							OFFSET -2.754700 0.931300 11.300900
							CHANNELS 3 Xrotation Yrotation Zrotation
							End Site
							{
								OFFSET 0 0 0
							}
						}
					}
				}
			}
		}
	}
	JOINT Spine_virtual
	{
		OFFSET 0.000000 0.000000 0.000000
		CHANNELS 3 Xrotation Yrotation Zrotation
		JOINT Spine
		{
			OFFSET -0.279200 12.230698 -2.892100
			CHANNELS 3 Xrotation Yrotation Zrotation
			JOINT Spine1
			{
				OFFSET -0.232667 10.192268 -1.242267
				CHANNELS 3 Xrotation Yrotation Zrotation
				JOINT Spine1_split
				{
					OFFSET -0.232667 10.192268 -1.242267
					CHANNELS 3 Xrotation Yrotation Zrotation
					JOINT Spine2
					{
						OFFSET -0.232667 10.192268 -1.242267
						CHANNELS 3 Xrotation Yrotation Zrotation
						JOINT Neck_virtual
						{
							OFFSET 0.000000 0.000000 0.000000
							CHANNELS 3 Xrotation Yrotation Zrotation
							JOINT Neck
							{
								OFFSET -0.418800 17.814194 8.416900
								CHANNELS 3 Xrotation Yrotation Zrotation
								JOINT Head
								{
									OFFSET 0.000000 7.031097 3.806800
									CHANNELS 3 Xrotation Yrotation Zrotation
									JOINT HeadTop_End
									{
										OFFSET 0.000000 24.646606 12.978600
										CHANNELS 3 Xrotation Yrotation Zrotation
										End Site
										{
											OFFSET 0 0 0
										}
									}
								}
							}
						}
						JOINT LeftShoulder_virtual
						{
							OFFSET 0.000000 0.000000 0.000000
							CHANNELS 3 Xrotation Yrotation Zrotation
							JOINT LeftShoulder
							{
								OFFSET 8.476499 7.247704 -3.868750
								CHANNELS 3 Xrotation Yrotation Zrotation
								JOINT LeftShoulder_split
								{
									OFFSET 8.476499 7.247704 -3.868750
									CHANNELS 3 Xrotation Yrotation Zrotation
									JOINT LeftArm
									{
										OFFSET 9.308998 -2.777710 0.208600
										CHANNELS 3 Xrotation Yrotation Zrotation
										JOINT LeftForeArm
										{
											OFFSET 29.972298 0.000000 0.000000
											CHANNELS 3 Xrotation Yrotation Zrotation
											JOINT LeftHand
											{
												OFFSET 26.026505 0.000000 0.000000
												CHANNELS 3 Xrotation Yrotation Zrotation
												End Site
												{
													OFFSET 0 0 0
												}
											}
										}
									}
								}
							}
						}
						JOINT RightShoulder_virtual
						{
							OFFSET 0.000000 0.000000 0.000000
							CHANNELS 3 Xrotation Yrotation Zrotation
							JOINT RightShoulder
							{
								OFFSET -7.570500 7.247704 -3.868750
								CHANNELS 3 Xrotation Yrotation Zrotation
								JOINT RightShoulder_split
								{
									OFFSET -7.570500 7.247704 -3.868750
									CHANNELS 3 Xrotation Yrotation Zrotation
									JOINT RightArm
									{
										OFFSET -9.308998 -2.777710 0.208500
										CHANNELS 3 Xrotation Yrotation Zrotation
										JOINT RightForeArm
										{
											OFFSET -29.972300 0.000000 0.000000
											CHANNELS 3 Xrotation Yrotation Zrotation
											JOINT RightHand
											{
												OFFSET -26.026505 0.000000 0.000000
												CHANNELS 3 Xrotation Yrotation Zrotation
												End Site
												{
													OFFSET 0 0 0
												}
											}
										}
									}
								}
							}
						}
					}
				}
			}
		}
	}
}
MOTION
Frames: 7
Frame Time: 0.03333333
1.336401 72.209969 -8.454397 0.000000 0.000000 0.000000 3.733367 -77.744027 4.409637 -40.908612 16.770367 53.724946 30.427707 -17.067198 -3.518429 15.746509 17.969550 -40.723784 -1.052084 -5.625536 -5.727497 0.000000 0.000000 0.000000 2.745455 -78.124394 3.257993 -30.879019 6.011337 -26.261053 45.608202 18.548229 -6.321562 -14.800704 -11.435696 35.491965 1.880553 8.550888 -11.322512 0.000000 0.000000 0.000000 5.030963 -73.036722 4.463502 0.178678 4.536428 2.094107 5.171762 0.086174 -2.900068 0.180197 -0.872178 0.198270 0.000000 0.000000 0.000000 10.483723 1.772864 -1.703219 -14.119778 22.475368 10.743958 16.544813 -9.993052 -10.963015 0.000000 0.000000 0.000000 9.869716 -0.216348 -1.428756 4.465451 -0.859347 -6.373204 4.481028 -7.503969 -3.606237 -64.140729 -14.385994 -14.053370 9.109800 -11.832773 13.059983 0.000000 0.000000 0.000000 6.509938 -0.709503 -1.800683 -5.193005 16.671162 2.658363 13.239123 -0.141927 8.103274 -12.364555 68.718861 24.994287 112.768431 76.775472 -112.482130 0.000000 0.000000 0.000000 
1.374157 72.184380 -8.428900 0.000000 0.000000 0.000000 5.297150 -77.714507 5.668327 -40.135964 16.601886 53.798139 30.978931 -17.591142 -3.441048 14.944828 18.200040 -40.399155 -1.358054 -5.668418 -5.531209 0.000000 0.000000 0.000000 3.168896 -77.694399 3.652036 -31.299455 6.227250 -26.316968 45.093346 18.680511 -5.888321 -14.489901 -11.395729 35.520774 1.369626 8.721089 -11.321139 0.000000 0.000000 0.000000 5.618814 -73.054296 5.272670 -0.338164 4.408162 2.098904 4.777624 -0.036725 -2.848886 0.100430 -0.749996 0.205636 0.000000 0.000000 0.000000 10.211226 1.504843 -1.388872 -13.209179 22.775505 10.587809 16.533627 -10.400630 -12.224313 0.000000 0.000000 0.000000 9.089738 -0.278684 -1.463951 4.505248 0.101907 -8.246364 5.224181 -6.750753 -3.093339 -63.486526 -14.227346 -15.384612 10.194539 -12.047088 13.733081 0.000000 0.000000 0.000000 6.081540 -0.877020 -1.864621 -5.402875 16.469476 2.602410 13.355815 -2.184083 7.321673 -13.812650 68.565735 27.146481 115.390008 76.971287 -115.391374 0.000000 0.000000 0.000000 
1.254845 72.456055 -8.460569 0.000000 0.000000 0.000000 7.332954 -77.933599 7.518264 -39.131916 16.446467 53.625424 31.183171 -17.647942 -3.290071 14.817433 18.835275 -40.609757 -1.661675 -5.635314 -5.640154 0.000000 0.000000 0.000000 4.490840 -77.542277 4.957794 -32.070139 6.238214 -26.467774 44.413814 18.825326 -5.296305 -13.919702 -10.741629 35.138072 2.016557 8.881438 -11.643349 0.000000 0.000000 0.000000 6.222295 -73.512213 6.025187 -0.952070 4.366696 2.085820 4.522814 -0.194251 -2.645793 0.110572 -0.657135 0.169147 0.000000 0.000000 0.000000 9.954172 1.177527 -0.943996 -12.110009 23.040952 10.444684 14.455059 -9.092564 -15.056291 0.000000 0.000000 0.000000 8.098529 -0.400242 -1.426967 4.370742 0.621560 -10.846758 5.688341 -6.343781 -1.553997 -60.789742 -13.323503 -17.325273 10.803666 -13.689530 13.822809 0.000000 0.000000 0.000000 5.707211 -1.044788 -1.711297 -5.739638 15.126287 2.582488 12.469361 -3.027885 6.464682 -12.752411 68.428776 27.893837 110.143228 78.076514 -110.080403 0.000000 0.000000 0.000000 
1.008014 73.078682 -8.473642 0.000000 0.000000 0.000000 9.225298 -78.313692 9.425306 -37.607022 16.534631 52.882436 30.420105 -17.061350 -3.140224 15.086271 19.942334 -41.003210 -2.121642 -5.536604 -5.888951 0.000000 0.000000 0.000000 6.081183 -77.608960 6.634191 -32.796974 5.991971 -26.734479 43.656845 18.764599 -4.737197 -13.272986 -9.758107 34.541144 3.470817 9.014661 -12.214204 0.000000 0.000000 0.000000 6.750506 -74.176879 6.615114 -1.418538 4.399892 2.050779 4.413298 -0.398362 -2.311904 0.167009 -0.595594 0.134066 0.000000 0.000000 0.000000 9.653186 0.819695 -0.479075 -10.946981 23.178655 10.226957 10.927554 -6.327445 -18.730013 0.000000 0.000000 0.000000 7.194650 -0.581198 -1.365001 4.158554 0.379483 -13.784164 6.091161 -6.385397 0.608944 -56.318137 -12.327874 -19.878945 11.331750 -17.742156 13.703777 0.000000 0.000000 0.000000 5.454149 -1.202023 -1.400414 -6.176701 12.873579 2.895026 11.091839 -2.256098 5.600042 -10.046589 68.045650 28.152663 94.384622 79.527321 -93.841437 0.000000 0.000000 0.000000 
0.634180 74.037903 -8.359270 0.000000 0.000000 0.000000 10.507978 -78.501447 10.915380 -35.373215 16.961267 51.374043 28.753543 -15.929128 -2.744815 15.369507 21.538249 -41.348681 -2.474140 -5.405524 -6.233885 0.000000 0.000000 0.000000 7.106514 -77.683443 7.984025 -33.070628 5.456930 -27.090069 42.756124 18.377464 -4.374610 -12.388350 -8.721369 34.150946 4.097297 9.250729 -12.888219 0.000000 0.000000 0.000000 6.610593 -74.733929 6.542276 -1.533947 4.449741 2.008089 4.444362 -0.675036 -1.889297 0.202465 -0.593142 0.122080 0.000000 0.000000 0.000000 9.267549 0.451284 -0.070323 -9.700864 23.170517 9.845833 6.953968 -2.718152 -22.299898 0.000000 0.000000 0.000000 6.565519 -0.834739 -1.330406 3.825889 -0.864991 -16.508424 7.373943 -6.492121 2.588745 -50.204083 -11.906467 -22.690295 12.234294 -24.272983 13.748338 0.000000 0.000000 0.000000 5.374730 -1.347075 -1.009726 -6.661921 9.952120 3.685072 9.599477 -0.561519 4.870523 -6.782781 67.402738 28.436468 64.325547 79.332620 -62.931970 0.000000 0.000000 0.000000 
0.261871 75.156631 -8.247515 0.000000 0.000000 0.000000 10.491923 -78.203665 11.269541 -33.112504 17.414735 49.344719 26.503912 -14.595981 -1.943303 15.651735 22.994209 -41.927208 -2.345786 -5.269254 -6.594209 0.000000 0.000000 0.000000 7.578933 -77.486672 8.924412 -32.541173 4.776271 -27.398155 41.600766 17.616557 -4.275729 -11.318092 -7.911312 34.159699 3.344322 9.630658 -13.518027 0.000000 0.000000 0.000000 5.826226 -74.946573 5.956647 -1.223533 4.426460 1.941265 4.574675 -1.034177 -1.428368 0.201402 -0.684444 0.085843 0.000000 0.000000 0.000000 8.855148 0.066890 0.233080 -8.370552 23.016368 9.284204 2.994530 1.011964 -24.957494 0.000000 0.000000 0.000000 6.331236 -1.180486 -1.333859 3.393544 -2.934861 -18.368925 8.894121 -6.227733 3.917282 -43.490325 -13.332713 -25.332540 14.010092 -32.968312 14.378578 0.000000 0.000000 0.000000 5.511981 -1.518704 -0.596784 -7.105720 6.781333 5.097549 7.941992 0.871894 4.126188 -3.987060 66.441635 29.071874 35.936566 74.816574 -33.410144 0.000000 0.000000 0.000000 
0.073367 76.304161 -8.050611 0.000000 0.000000 0.000000 9.340651 -77.405475 10.622124 -31.598716 17.771578 47.386042 23.986132 -13.522596 -0.915441 16.310820 23.438866 -43.167861 -1.876745 -5.218560 -6.979331 0.000000 0.000000 0.000000 7.481217 -76.890841 9.312274 -31.135612 4.115592 -27.588915 40.091889 16.448928 -4.365166 -10.352610 -7.637527 34.224825 2.518413 9.961243 -13.864027 0.000000 0.000000 0.000000 4.633614 -74.690878 5.248231 -0.543059 4.169191 1.830174 4.730437 -1.505528 -0.982482 0.126045 -0.863346 0.037021 0.000000 0.000000 0.000000 8.481634 -0.342502 0.421505 -6.832866 22.769694 8.469433 -0.545585 4.243547 -26.384273 0.000000 0.000000 0.000000 6.467735 -1.636089 -1.322785 2.859973 -5.649307 -18.598083 9.625644 -5.698930 3.300175 -37.304827 -17.441995 -26.843881 17.016872 -43.327657 16.189247 0.000000 0.000000 0.000000 5.757667 -1.752909 -0.172297 -7.394761 3.911286 6.970340 6.084660 1.540174 4.024321 -2.106417 65.052190 29.931187 21.484287 66.737655 -17.762028 0.000000 0.000000 0.000000 
